<svg viewBox="0 0 33 33" style="background: #FFFFFF" xmlns="http://www.w3.org/2000/svg">
    <svg x="25" y="8">
        <circle r="6.6" fill="none" stroke="#60C2AA" stroke-width="3"/>
    </svg>
    <svg x="0" y="0">
        <path fill="#E38BAC" d="M15.4921 0.519089C14.8149 -0.158094 13.7196 -0.158094 13.0424 0.519089L8.43559 5.11649C8.1952 5.35639 7.8059 5.35619 7.56575 5.11605L2.95759 0.507887C2.28041 -0.169296 1.18507 -0.169296 0.507887 0.507887C-0.169296 1.18507 -0.169296 2.28041 0.507887 2.95759L5.11516 7.56486C5.35548 7.80518 5.35548 8.19482 5.11516 8.43514L0.507887 13.0424C-0.169296 13.7196 -0.169296 14.8149 0.507887 15.4921C1.18507 16.1693 2.28041 16.1693 2.95759 15.4921L7.56486 10.8848C7.80518 10.6445 8.19482 10.6445 8.43514 10.8848L13.0424 15.4921C13.7196 16.1693 14.8149 16.1693 15.4921 15.4921C16.1693 14.8149 16.1693 13.7196 15.4921 13.0424L10.8848 8.43514C10.6445 8.19482 10.6445 7.80518 10.8848 7.56486L15.4921 2.95759C16.1581 2.29161 16.1581 1.18507 15.4921 0.519089Z"/>
    </svg>
    <svg x="8" y="25">
        <circle r="6.6" fill="none" stroke="#60C2AA" stroke-width="3"/>
    </svg>
    <svg x="17" y="17">
        <path fill="#E38BAC" d="M15.4921 0.519089C14.8149 -0.158094 13.7196 -0.158094 13.0424 0.519089L8.43559 5.11649C8.1952 5.35639 7.8059 5.35619 7.56575 5.11605L2.95759 0.507887C2.28041 -0.169296 1.18507 -0.169296 0.507887 0.507887C-0.169296 1.18507 -0.169296 2.28041 0.507887 2.95759L5.11516 7.56486C5.35548 7.80518 5.35548 8.19482 5.11516 8.43514L0.507887 13.0424C-0.169296 13.7196 -0.169296 14.8149 0.507887 15.4921C1.18507 16.1693 2.28041 16.1693 2.95759 15.4921L7.56486 10.8848C7.80518 10.6445 8.19482 10.6445 8.43514 10.8848L13.0424 15.4921C13.7196 16.1693 14.8149 16.1693 15.4921 15.4921C16.1693 14.8149 16.1693 13.7196 15.4921 13.0424L10.8848 8.43514C10.6445 8.19482 10.6445 7.80518 10.8848 7.56486L15.4921 2.95759C16.1581 2.29161 16.1581 1.18507 15.4921 0.519089Z"/>
    </svg>
</svg>
