<?xml version="1.0" standalone="no"?>
<!DOCTYPE svg PUBLIC "-//W3C//DTD SVG 20010904//EN"
 "http://www.w3.org/TR/2001/REC-SVG-20010904/DTD/svg10.dtd">
<svg version="1.0" xmlns="http://www.w3.org/2000/svg"
 width="700.000000pt" height="700.000000pt" viewBox="0 0 700.000000 700.000000"
 preserveAspectRatio="xMidYMid meet">
<metadata>
Created by potrace 1.14, written by Peter Selinger 2001-2017
</metadata>
<g transform="translate(0.000000,700.000000) scale(0.100000,-0.100000)"
fill="#000000" stroke="none">
<path d="M253 6980 c-103 -36 -170 -97 -220 -197 -24 -51 -28 -69 -28 -148 0
-80 4 -98 32 -156 28 -61 73 -109 541 -577 281 -281 518 -522 527 -535 19 -30
22 -85 5 -117 -7 -14 -245 -259 -530 -545 -285 -286 -525 -535 -535 -554 -54
-108 -57 -232 -7 -334 92 -187 300 -259 492 -171 47 21 131 101 580 549 570
569 555 556 632 524 18 -7 246 -227 543 -524 283 -283 531 -523 556 -537 165
-97 387 -47 488 111 79 123 84 269 13 390 -15 25 -249 267 -529 548 -277 277
-513 518 -523 536 -22 36 -26 78 -9 110 6 12 244 256 529 542 285 286 525 534
534 552 36 72 48 126 44 202 -13 266 -278 422 -526 309 -36 -16 -163 -137
-564 -537 -285 -283 -526 -520 -535 -525 -40 -23 -97 -23 -131 0 -13 8 -253
245 -534 526 -462 462 -517 513 -575 540 -82 39 -191 46 -270 18z"/>
<path d="M4990 6993 c-57 -10 -220 -55 -285 -80 -464 -173 -838 -545 -1009
-1005 -76 -205 -110 -393 -110 -608 0 -82 11 -229 18 -251 3 -8 7 -33 10 -56
22 -178 128 -441 252 -628 91 -137 105 -154 214 -266 553 -565 1426 -676 2109
-267 47 28 98 61 112 72 14 12 43 35 65 51 283 218 491 534 596 900 l32 110 3
320 2 320 -29 112 c-119 455 -385 813 -787 1062 -46 28 -85 51 -88 52 -2 0
-42 17 -87 38 -78 36 -258 96 -358 119 -43 10 -606 15 -660 5z m460 -618 c335
-40 656 -269 819 -585 104 -201 142 -482 95 -700 -48 -218 -156 -414 -310
-563 -204 -196 -444 -296 -724 -302 -184 -4 -321 24 -485 100 -322 147 -568
478 -613 825 -9 68 -8 260 1 320 10 66 45 189 67 237 11 24 20 46 20 51 0 14
81 144 125 202 180 234 464 394 740 416 39 4 71 7 73 9 4 3 132 -3 192 -10z"/>
<path d="M1607 3414 c-1 -1 -37 -4 -79 -8 -42 -3 -110 -13 -150 -22 -40 -8
-84 -18 -98 -20 -14 -3 -72 -21 -129 -40 -530 -177 -943 -605 -1102 -1144 -46
-153 -50 -192 -49 -489 1 -266 3 -293 25 -388 146 -618 611 -1094 1240 -1269
97 -27 109 -28 394 -32 304 -4 362 1 496 39 407 117 736 356 971 706 188 281
288 611 288 953 0 80 -11 230 -18 252 -3 7 -7 32 -10 54 -21 173 -141 467
-262 645 -322 474 -823 749 -1392 762 -67 2 -123 2 -125 1z m291 -653 c71 -14
225 -65 259 -87 12 -8 27 -14 33 -14 12 0 140 -83 185 -119 60 -50 171 -170
210 -227 125 -184 184 -369 190 -590 7 -304 -99 -572 -311 -786 -469 -472
-1235 -418 -1636 116 -289 386 -280 936 22 1315 153 192 415 354 630 387 19 3
53 9 75 13 58 11 269 6 343 -8z"/>
<path d="M3922 3389 c-198 -25 -343 -224 -309 -424 20 -116 27 -124 577 -675
303 -303 521 -529 529 -548 32 -77 45 -61 -524 -632 -333 -334 -530 -540 -543
-565 -31 -64 -43 -109 -44 -171 -2 -110 36 -198 117 -273 116 -107 281 -129
426 -56 19 9 268 251 555 537 558 557 558 557 632 534 28 -8 155 -129 556
-530 474 -473 525 -521 585 -550 59 -28 76 -31 156 -31 77 1 99 5 149 28 93
44 155 117 204 239 6 15 10 63 8 107 -7 154 6 139 -574 719 -281 281 -518 522
-527 536 -21 32 -22 84 -2 122 9 16 241 254 517 529 276 275 513 517 527 539
97 150 72 353 -58 470 -115 105 -295 125 -429 48 -26 -15 -256 -236 -557 -536
-282 -281 -525 -516 -540 -523 -41 -18 -74 -16 -110 7 -18 10 -261 248 -542
528 -436 437 -517 514 -567 537 -67 32 -138 43 -212 34z"/>
</g>
</svg>
