<?xml version="1.0" encoding="utf-8"?>
<svg viewBox="241.584 266.103 347.174 31.76" xmlns="http://www.w3.org/2000/svg" xmlnsXlink="http://www.w3.org/1999/xlink" xmlnsBx="https://boxy-svg.com">
  <defs>
    <linearGradient id="gradient-2" bxPinned="true"/>
    <linearGradient id="color-0" bxPinned="true">
      <stop style="stop-color: #8e2de2;" offset="0"/>
      <stop style="stop-color: #4a00e0;" offset="1"/>
    </linearGradient>
    <linearGradient id="color-2" bxPinned="true">
      <stop style="stop-color: #aa96da;"/>
    </linearGradient>
    <linearGradient id="color-3" bxPinned="true">
      <stop style="stop-color: #fcbad3;"/>
    </linearGradient>
    <linearGradient id="color-4" bxPinned="true">
      <stop style="stop-color: #ffffd2;"/>
    </linearGradient>
    <radialGradient id="color-0-0" gradientUnits="userSpaceOnUse" cx="216.841" cy="204.494" r="149.39" spreadMethod="pad" gradientTransform="matrix(1, 0, 0, 1, 175, 76)" xlinkHref="#color-0"/>
  </defs>
  <path d="M 257.18 291.169 C 256.933 290.576 256.605 289.821 256.197 288.906 C 255.788 287.991 255.349 287.002 254.879 285.938 C 254.41 284.875 253.909 283.78 253.377 282.655 C 252.845 281.53 252.344 280.466 251.874 279.464 C 251.404 278.463 250.965 277.566 250.557 276.775 C 250.149 275.983 249.821 275.377 249.574 274.957 C 249.302 277.876 249.079 281.035 248.906 284.436 C 248.733 287.837 248.585 291.268 248.461 294.731 L 244.937 294.731 C 245.036 292.505 245.147 290.26 245.271 287.997 C 245.394 285.734 245.536 283.508 245.697 281.319 C 245.858 279.13 246.031 276.997 246.217 274.92 C 246.402 272.842 246.606 270.876 246.829 269.021 L 249.982 269.021 C 250.65 270.109 251.367 271.395 252.134 272.879 C 252.901 274.363 253.667 275.915 254.434 277.535 C 255.201 279.155 255.943 280.775 256.66 282.395 C 257.377 284.015 258.033 285.493 258.627 286.829 C 259.22 285.493 259.876 284.015 260.593 282.395 C 261.31 280.775 262.052 279.155 262.819 277.535 C 263.586 275.915 264.352 274.363 265.119 272.879 C 265.886 271.395 266.603 270.109 267.271 269.021 L 270.424 269.021 C 271.265 277.306 271.896 285.876 272.316 294.731 L 268.792 294.731 C 268.668 291.268 268.52 287.837 268.347 284.436 C 268.174 281.035 267.951 277.876 267.679 274.957 C 267.432 275.377 267.104 275.983 266.696 276.775 C 266.288 277.566 265.849 278.463 265.379 279.464 C 264.909 280.466 264.408 281.53 263.876 282.655 C 263.345 283.78 262.844 284.875 262.374 285.938 C 261.904 287.002 261.465 287.991 261.057 288.906 C 260.648 289.821 260.32 290.576 260.073 291.169 L 257.18 291.169 Z M 286.614 295.288 C 284.933 295.288 283.474 295.028 282.237 294.508 C 281 293.989 279.986 293.278 279.194 292.375 C 278.403 291.472 277.815 290.403 277.432 289.166 C 277.049 287.929 276.857 286.594 276.857 285.159 L 276.857 269.021 L 280.456 269.021 L 280.456 284.751 C 280.456 287.324 281.025 289.191 282.162 290.353 C 283.3 291.516 284.784 292.097 286.614 292.097 C 287.529 292.097 288.364 291.955 289.119 291.67 C 289.873 291.386 290.522 290.947 291.066 290.353 C 291.611 289.76 292.031 288.999 292.328 288.072 C 292.625 287.144 292.773 286.037 292.773 284.751 L 292.773 269.021 L 296.372 269.021 L 296.372 285.159 C 296.372 286.594 296.18 287.929 295.797 289.166 C 295.414 290.403 294.82 291.472 294.016 292.375 C 293.212 293.278 292.198 293.989 290.974 294.508 C 289.749 295.028 288.296 295.288 286.614 295.288 Z M 317.206 291.615 L 317.206 294.731 L 301.736 294.731 L 301.736 269.021 L 305.334 269.021 L 305.334 291.615 L 317.206 291.615 Z M 333.082 269.021 L 333.082 272.137 L 324.994 272.137 L 324.994 294.731 L 321.395 294.731 L 321.395 272.137 L 313.308 272.137 L 313.308 269.021 L 333.082 269.021 Z M 336.491 269.021 L 340.089 269.021 L 340.089 294.731 L 336.491 294.731 L 336.491 269.021 Z M 353.071 268.761 C 356.682 268.761 359.459 269.447 361.4 270.82 C 363.341 272.193 364.312 274.239 364.312 276.96 C 364.312 278.444 364.046 279.712 363.515 280.763 C 362.983 281.814 362.216 282.668 361.215 283.323 C 360.213 283.978 358.995 284.454 357.56 284.751 C 356.125 285.048 354.505 285.196 352.7 285.196 L 349.843 285.196 L 349.843 294.731 L 346.245 294.731 L 346.245 269.392 C 347.259 269.145 348.39 268.978 349.639 268.891 C 350.888 268.804 352.032 268.761 353.071 268.761 Z M 353.368 271.915 C 351.835 271.915 350.66 271.952 349.843 272.026 L 349.843 282.117 L 352.552 282.117 C 353.789 282.117 354.902 282.037 355.891 281.876 C 356.88 281.715 357.715 281.443 358.395 281.06 C 359.075 280.677 359.601 280.151 359.972 279.483 C 360.343 278.815 360.528 277.962 360.528 276.923 C 360.528 275.934 360.336 275.117 359.953 274.474 C 359.57 273.831 359.05 273.318 358.395 272.935 C 357.74 272.552 356.979 272.286 356.113 272.137 C 355.248 271.989 354.333 271.915 353.368 271.915 Z M 383.585 291.615 L 383.585 294.731 L 368.114 294.731 L 368.114 269.021 L 371.713 269.021 L 371.713 291.615 L 383.585 291.615 Z M 404.902 294.731 C 404.482 293.618 404.086 292.524 403.715 291.448 C 403.344 290.372 402.961 289.277 402.565 288.164 L 390.916 288.164 L 388.578 294.731 L 384.831 294.731 C 385.82 292.01 386.748 289.494 387.614 287.181 C 388.479 284.868 389.326 282.673 390.155 280.596 C 390.984 278.519 391.806 276.534 392.622 274.641 C 393.438 272.749 394.291 270.876 395.182 269.021 L 398.484 269.021 C 399.375 270.876 400.228 272.749 401.044 274.641 C 401.86 276.534 402.682 278.519 403.511 280.596 C 404.34 282.673 405.187 284.868 406.052 287.181 C 406.918 289.494 407.846 292.01 408.835 294.731 L 404.902 294.731 Z M 401.526 285.196 C 400.735 283.045 399.949 280.961 399.17 278.945 C 398.391 276.929 397.581 274.994 396.74 273.139 C 395.875 274.994 395.052 276.929 394.273 278.945 C 393.494 280.961 392.721 283.045 391.954 285.196 L 401.526 285.196 Z M 414.552 294.731 L 414.552 284.417 C 412.845 281.771 411.238 279.162 409.729 276.589 C 408.22 274.017 406.798 271.494 405.463 269.021 L 409.692 269.021 C 410.632 271.049 411.683 273.108 412.846 275.198 C 414.008 277.288 415.207 279.298 416.444 281.227 C 417.656 279.298 418.843 277.288 420.006 275.198 C 421.169 273.108 422.232 271.049 423.197 269.021 L 427.203 269.021 C 425.868 271.494 424.446 274.011 422.937 276.571 C 421.428 279.13 419.833 281.721 418.151 284.343 L 418.151 294.731 L 414.552 294.731 Z M 429.633 294.731 L 429.633 269.021 L 445.326 269.021 L 445.326 272.1 L 433.232 272.1 L 433.232 279.743 L 443.991 279.743 L 443.991 282.748 L 433.232 282.748 L 433.232 291.652 L 446.254 291.652 L 446.254 294.731 L 429.633 294.731 Z M 462.864 283.972 C 463.26 284.467 463.761 285.116 464.367 285.92 C 464.973 286.724 465.597 287.614 466.24 288.591 C 466.883 289.568 467.52 290.588 468.151 291.652 C 468.782 292.715 469.32 293.742 469.765 294.731 L 465.832 294.731 C 465.337 293.791 464.8 292.839 464.219 291.874 C 463.638 290.909 463.05 289.988 462.456 289.11 C 461.863 288.232 461.275 287.41 460.694 286.643 C 460.113 285.876 459.587 285.209 459.117 284.64 C 458.796 284.665 458.468 284.677 458.134 284.677 C 457.8 284.677 457.46 284.677 457.114 284.677 L 453.886 284.677 L 453.886 294.731 L 450.287 294.731 L 450.287 269.392 C 451.302 269.145 452.433 268.978 453.682 268.891 C 454.931 268.804 456.075 268.761 457.114 268.761 C 460.725 268.761 463.476 269.441 465.369 270.802 C 467.261 272.162 468.207 274.19 468.207 276.886 C 468.207 278.593 467.756 280.052 466.853 281.264 C 465.95 282.476 464.62 283.379 462.864 283.972 Z M 457.411 271.915 C 455.877 271.915 454.702 271.952 453.886 272.026 L 453.886 281.709 L 456.446 281.709 C 457.683 281.709 458.796 281.647 459.785 281.523 C 460.774 281.4 461.609 281.165 462.289 280.819 C 462.97 280.472 463.495 279.984 463.866 279.353 C 464.237 278.722 464.423 277.888 464.423 276.849 C 464.423 275.884 464.237 275.08 463.866 274.437 C 463.495 273.794 462.995 273.287 462.364 272.916 C 461.733 272.545 460.991 272.286 460.138 272.137 C 459.285 271.989 458.376 271.915 457.411 271.915 Z M 492.488 295.288 C 490.682 295.288 489.037 294.991 487.553 294.397 C 486.069 293.804 484.795 292.938 483.732 291.8 C 482.669 290.663 481.846 289.259 481.265 287.589 C 480.684 285.92 480.393 284.009 480.393 281.857 C 480.393 279.706 480.721 277.795 481.376 276.125 C 482.031 274.456 482.916 273.052 484.029 271.915 C 485.142 270.777 486.44 269.911 487.924 269.318 C 489.408 268.724 490.991 268.427 492.673 268.427 C 493.736 268.427 494.695 268.501 495.548 268.65 C 496.401 268.798 497.143 268.971 497.774 269.169 C 498.405 269.367 498.918 269.565 499.314 269.763 C 499.71 269.961 499.982 270.109 500.13 270.208 L 499.091 273.176 C 498.869 273.027 498.548 272.867 498.127 272.694 C 497.706 272.521 497.23 272.347 496.698 272.174 C 496.167 272.001 495.586 271.859 494.955 271.748 C 494.324 271.637 493.687 271.581 493.044 271.581 C 491.684 271.581 490.46 271.816 489.371 272.286 C 488.283 272.755 487.356 273.435 486.589 274.326 C 485.822 275.217 485.235 276.299 484.826 277.572 C 484.418 278.846 484.214 280.274 484.214 281.857 C 484.214 283.391 484.393 284.789 484.752 286.05 C 485.111 287.311 485.649 288.393 486.366 289.296 C 487.083 290.199 487.98 290.897 489.056 291.392 C 490.132 291.887 491.387 292.134 492.822 292.134 C 494.479 292.134 495.851 291.961 496.94 291.615 C 498.028 291.268 498.844 290.959 499.388 290.687 L 500.316 293.655 C 500.143 293.779 499.833 293.934 499.388 294.119 C 498.943 294.304 498.386 294.484 497.719 294.657 C 497.051 294.83 496.272 294.979 495.381 295.102 C 494.491 295.226 493.527 295.288 492.488 295.288 Z M 519.871 269.021 L 523.469 269.021 L 523.469 294.731 L 519.871 294.731 L 519.871 282.859 L 507.294 282.859 L 507.294 294.731 L 503.695 294.731 L 503.695 269.021 L 507.294 269.021 L 507.294 279.743 L 519.871 279.743 L 519.871 269.021 Z M 528.936 294.731 L 528.936 269.021 L 544.629 269.021 L 544.629 272.1 L 532.534 272.1 L 532.534 279.743 L 543.293 279.743 L 543.293 282.748 L 532.534 282.748 L 532.534 291.652 L 545.556 291.652 L 545.556 294.731 L 528.936 294.731 Z M 555.563 292.171 C 559.322 292.171 561.202 290.885 561.202 288.313 C 561.202 287.522 561.035 286.848 560.702 286.291 C 560.368 285.734 559.916 285.252 559.347 284.844 C 558.778 284.436 558.129 284.084 557.4 283.787 C 556.67 283.49 555.897 283.193 555.081 282.896 C 554.141 282.575 553.251 282.21 552.41 281.802 C 551.569 281.394 550.839 280.912 550.221 280.355 C 549.602 279.798 549.114 279.137 548.755 278.37 C 548.396 277.603 548.217 276.676 548.217 275.587 C 548.217 273.336 548.984 271.58 550.518 270.319 C 552.051 269.058 554.166 268.427 556.862 268.427 C 558.42 268.427 559.836 268.594 561.11 268.928 C 562.383 269.262 563.317 269.627 563.911 270.022 L 562.761 272.953 C 562.241 272.632 561.468 272.316 560.442 272.007 C 559.415 271.698 558.222 271.544 556.862 271.544 C 556.169 271.544 555.526 271.618 554.932 271.766 C 554.339 271.915 553.819 272.137 553.374 272.434 C 552.929 272.731 552.576 273.108 552.317 273.565 C 552.057 274.023 551.927 274.561 551.927 275.179 C 551.927 275.872 552.063 276.453 552.335 276.923 C 552.608 277.393 552.991 277.807 553.486 278.166 C 553.981 278.525 554.556 278.852 555.211 279.149 C 555.866 279.446 556.59 279.742 557.381 280.039 C 558.494 280.484 559.515 280.93 560.442 281.375 C 561.369 281.82 562.173 282.352 562.853 282.97 C 563.534 283.589 564.059 284.325 564.43 285.178 C 564.801 286.031 564.987 287.064 564.987 288.276 C 564.987 290.527 564.164 292.258 562.519 293.47 C 560.874 294.682 558.556 295.288 555.563 295.288 C 554.549 295.288 553.615 295.22 552.762 295.083 C 551.909 294.947 551.148 294.786 550.48 294.601 C 549.813 294.416 549.238 294.218 548.755 294.008 C 548.273 293.797 547.896 293.618 547.624 293.47 L 548.7 290.502 C 549.269 290.823 550.134 291.182 551.297 291.578 C 552.459 291.973 553.881 292.171 555.563 292.171 Z M 574.746 292.171 C 578.505 292.171 580.385 290.885 580.385 288.313 C 580.385 287.522 580.218 286.848 579.884 286.291 C 579.551 285.734 579.099 285.252 578.53 284.844 C 577.961 284.436 577.312 284.084 576.582 283.787 C 575.853 283.49 575.08 283.193 574.264 282.896 C 573.324 282.575 572.434 282.21 571.593 281.802 C 570.752 281.394 570.022 280.912 569.404 280.355 C 568.785 279.798 568.297 279.137 567.938 278.37 C 567.579 277.603 567.4 276.676 567.4 275.587 C 567.4 273.336 568.167 271.58 569.7 270.319 C 571.234 269.058 573.349 268.427 576.045 268.427 C 577.603 268.427 579.019 268.594 580.292 268.928 C 581.566 269.262 582.5 269.627 583.094 270.022 L 581.943 272.953 C 581.424 272.632 580.651 272.316 579.625 272.007 C 578.598 271.698 577.405 271.544 576.045 271.544 C 575.352 271.544 574.709 271.618 574.115 271.766 C 573.522 271.915 573.002 272.137 572.557 272.434 C 572.112 272.731 571.759 273.108 571.5 273.565 C 571.24 274.023 571.11 274.561 571.11 275.179 C 571.11 275.872 571.246 276.453 571.518 276.923 C 571.79 277.393 572.173 277.807 572.668 278.166 C 573.163 278.525 573.738 278.852 574.394 279.149 C 575.049 279.446 575.773 279.742 576.564 280.039 C 577.677 280.484 578.697 280.93 579.625 281.375 C 580.552 281.82 581.356 282.352 582.036 282.97 C 582.716 283.589 583.242 284.325 583.613 285.178 C 583.984 286.031 584.169 287.064 584.169 288.276 C 584.169 290.527 583.347 292.258 581.702 293.47 C 580.057 294.682 577.739 295.288 574.746 295.288 C 573.732 295.288 572.798 295.22 571.945 295.083 C 571.092 294.947 570.331 294.786 569.663 294.601 C 568.996 294.416 568.421 294.218 567.938 294.008 C 567.456 293.797 567.079 293.618 566.807 293.47 L 567.883 290.502 C 568.452 290.823 569.317 291.182 570.48 291.578 C 571.642 291.973 573.064 292.171 574.746 292.171 Z" style="fill: rgb(6, 6, 6); paint-order: stroke markers; stroke: url(#color-0-0); stroke-linejoin: round; stroke-opacity: 0.49; stroke-width: 5px; text-transform: uppercase; white-space: pre;"/>
</svg>